<mxfile host="app.diagrams.net" modified="2024-05-14T02:39:43.339Z" agent="Mozilla/5.0 (Macintosh; Intel Mac OS X 10_15_7) AppleWebKit/537.36 (KHTML, like Gecko) Chrome/124.0.0.0 Safari/537.36" version="24.4.0" etag="YjSrtv1evh25Bi_3JrJd" type="github">
  <diagram name="第 1 页" id="Bhi-YJKGWDIUIVYYXpNB">
    <mxGraphModel>
      <root>
        <mxCell id="0" />
        <mxCell id="1" parent="0" />
      </root>
    </mxGraphModel>
  </diagram>
</mxfile>
